<?xml version="1.0" standalone="no"?>
<!DOCTYPE svg PUBLIC "-//W3C//DTD SVG 20010904//EN"
 "http://www.w3.org/TR/2001/REC-SVG-20010904/DTD/svg10.dtd">
<svg version="1.0" xmlns="http://www.w3.org/2000/svg"
 width="512.000000pt" height="512.000000pt" viewBox="0 0 512.000000 512.000000"
 preserveAspectRatio="xMidYMid meet">

<g transform="translate(0.000000,512.000000) scale(0.100000,-0.100000)"
fill="#000000" stroke="none">
<path d="M1464 4429 c-16 -5 -41 -20 -55 -35 -24 -25 -24 -28 -27 -240 l-3
-214 -27 0 c-62 -1 -173 -32 -257 -74 -149 -74 -283 -216 -331 -352 -16 -46
-16 -55 -3 -90 28 -75 118 -106 186 -65 19 12 44 44 64 83 65 123 197 220 317
235 l52 6 0 -190 c0 -177 1 -192 21 -217 l20 -26 -20 -26 c-12 -15 -21 -37
-21 -50 l0 -24 -542 -2 -543 -3 -3 -1092 -2 -1092 -62 -3 c-52 -2 -63 -6 -66
-22 -2 -10 2 -22 10 -27 17 -11 4759 -11 4776 0 8 5 12 17 10 27 -3 16 -15 20
-75 24 -61 4 -71 7 -63 20 6 9 10 220 10 530 0 496 -1 516 -20 548 -20 32 -20
32 0 65 19 31 20 51 20 547 0 496 -1 516 -20 548 -20 32 -20 32 0 65 19 31 20
51 20 548 l0 516 -23 34 c-13 19 -38 39 -57 46 -42 14 -3236 17 -3286 2z
m1839 -244 l-98 -194 -716 -3 c-691 -3 -718 -4 -738 -22 -12 -11 -24 -36 -27
-56 l-6 -36 -65 25 -64 25 3 212 c2 161 6 215 17 227 12 16 88 17 902 17 l889
0 -97 -195z m1430 184 c12 -7 25 -17 29 -23 4 -6 8 -239 8 -518 0 -495 -1
-509 -20 -528 -19 -19 -33 -20 -322 -20 l-303 0 -68 143 c-37 78 -101 201
-141 272 -97 172 -95 172 -192 0 -40 -71 -104 -194 -141 -272 l-68 -143 -297
0 c-164 0 -298 3 -298 6 0 4 43 91 96 195 l96 188 220 3 c272 4 258 -5 258
157 0 103 -1 109 -26 132 -24 22 -34 24 -155 28 -71 1 -129 5 -129 7 0 2 43
90 95 194 l95 190 621 0 c448 0 626 -3 642 -11z m-1610 -541 l-48 -93 -582 -3
-581 -2 -53 45 c-29 25 -56 45 -61 45 -4 0 -8 23 -8 50 l0 50 690 0 691 0 -48
-92z m405 0 l-3 -93 -187 -3 c-134 -2 -188 1 -188 9 0 6 21 49 46 95 l46 84
144 0 145 0 -3 -92z m-1928 24 c190 -62 350 -222 411 -412 14 -43 23 -103 27
-178 l5 -113 -69 3 -69 3 -6 105 c-6 115 -25 176 -79 260 -136 211 -419 282
-655 163 -68 -35 -166 -136 -204 -211 -34 -67 -61 -83 -110 -66 -44 16 -50 55
-17 121 80 164 231 286 416 338 79 21 263 15 350 -13z m2302 -265 c88 -164
165 -332 199 -432 56 -169 2 -315 -146 -393 -43 -23 -62 -27 -135 -27 -73 0
-92 4 -135 27 -105 55 -168 154 -169 263 0 70 25 152 96 310 52 115 199 395
208 395 3 0 39 -64 82 -143z m-959 -112 l-98 -195 -372 0 -373 0 0 33 c-1 81
-51 226 -109 313 l-30 44 539 0 540 0 -97 -195z m-1223 70 c54 -58 87 -116
106 -190 22 -80 27 -76 -98 -73 -142 4 -138 -3 -138 206 l0 153 41 -23 c22
-12 62 -45 89 -73z m120 -360 l0 -35 -126 0 -125 0 7 23 c13 44 22 47 135 47
l109 0 0 -35z m970 30 c0 -2 -15 -34 -32 -71 l-33 -66 129 -124 129 -124 -241
0 -241 0 -3 158 -3 157 -202 3 -203 2 0 35 0 35 350 0 c193 0 350 -2 350 -5z
m676 -10 c-43 -113 -44 -228 -3 -319 l26 -56 -207 0 -207 0 -137 131 -137 130
31 65 32 64 304 0 c269 0 303 -2 298 -15z m1264 -5 c19 -19 20 -33 20 -530 0
-497 -1 -511 -20 -530 -20 -20 -33 -20 -675 -20 -360 0 -655 2 -655 5 0 3 30
64 66 137 l66 131 -62 58 -61 59 46 0 c92 0 114 27 115 142 l0 87 58 -30 c124
-64 275 -55 383 21 l29 21 0 -90 c0 -49 3 -97 6 -106 12 -31 60 -45 149 -45
89 0 137 14 149 45 3 9 6 61 6 115 0 54 -3 106 -6 115 -12 30 -60 45 -148 45
l-85 0 26 56 c41 91 40 206 -3 319 -5 13 28 15 285 15 278 0 292 -1 311 -20z
m-2290 -1175 l0 -1065 -977 2 -978 3 -3 1063 -2 1062 980 0 980 0 0 -1065z
m710 645 l95 -89 -372 -1 -373 0 0 90 0 90 278 0 277 0 95 -90z m360 0 l0 -90
-87 0 -88 1 -95 89 -95 89 183 1 182 0 0 -90z m780 0 l0 -90 -95 0 -95 0 0 90
0 90 95 0 95 0 0 -90z m-905 -224 l70 -64 -65 -131 -64 -131 -411 2 -410 3 -3
193 -2 192 407 0 408 0 70 -64z m-95 -393 c0 -3 -44 -91 -97 -195 l-98 -188
-297 0 -298 0 0 195 0 195 395 0 c217 0 395 -3 395 -7z m1440 -13 c19 -19 20
-33 20 -530 0 -497 -1 -511 -20 -530 -20 -20 -33 -20 -970 -20 l-950 0 97 195
97 194 257 3 c257 3 257 3 283 27 25 23 26 30 26 127 0 56 -3 110 -6 119 -14
37 -57 45 -228 45 l-166 0 97 195 98 195 672 0 c660 0 673 0 693 -20z m-1672
-442 c-2 -7 -22 -50 -46 -95 l-42 -83 -235 0 -235 0 0 88 c0 49 3 92 7 95 3 4
130 7 280 7 215 0 274 -3 271 -12z m436 6 c13 -5 16 -23 16 -95 l0 -89 -235 0
-235 0 41 83 c23 45 46 88 51 95 8 9 56 12 178 12 93 0 175 -3 184 -6z m-564
-259 c0 -3 -43 -91 -95 -195 l-95 -191 -118 3 -117 3 -3 193 -2 192 215 0
c118 0 215 -2 215 -5z"/>
<path d="M4104 3976 c-17 -8 -34 -21 -38 -31 -3 -9 -6 -64 -6 -121 0 -99 1
-106 25 -130 25 -25 29 -26 136 -22 146 4 149 7 149 157 -1 115 -7 133 -54
151 -39 14 -175 12 -212 -4z m204 -148 l-3 -93 -90 0 -90 0 -3 93 -3 92 96 0
96 0 -3 -92z"/>
<path d="M863 2784 c-54 -27 -100 -85 -112 -143 -17 -78 -15 -1331 2 -1354 11
-16 60 -17 657 -15 l645 3 3 675 c1 371 0 690 -3 708 -7 41 -56 97 -106 123
-36 18 -63 19 -546 19 -445 0 -512 -2 -540 -16z m1074 -70 c65 -48 63 -22 63
-736 l0 -648 -595 0 -595 0 0 645 c0 686 0 686 48 728 11 10 33 22 48 27 16 5
248 8 516 7 475 -2 487 -2 515 -23z"/>
<path d="M1336 2385 c-59 -21 -114 -80 -132 -143 -18 -60 -13 -105 17 -163
l19 -38 -40 -165 c-22 -91 -40 -176 -40 -188 1 -44 38 -106 79 -133 32 -21 56
-28 119 -32 149 -10 225 11 275 79 34 46 32 108 -10 283 l-38 160 23 45 c53
106 7 235 -102 286 -57 27 -112 30 -170 9z"/>
<path d="M4103 1660 c-12 -5 -26 -18 -32 -29 -14 -25 -14 -216 -1 -241 5 -10
24 -23 41 -29 40 -14 169 -14 205 -1 47 18 53 36 54 151 0 149 -4 153 -142
156 -56 2 -113 -2 -125 -7z m191 -56 c13 -5 16 -23 16 -95 l0 -89 -95 0 -95 0
0 89 c0 62 4 91 13 94 18 8 143 8 161 1z"/>
<path d="M167 734 c-13 -13 -7 -42 9 -48 24 -9 367 -7 382 3 8 5 12 17 10 27
-3 18 -17 19 -199 22 -107 1 -198 -1 -202 -4z"/>
<path d="M726 724 c-18 -46 -95 -44 1834 -44 1929 0 1852 -2 1834 44 -6 15
-155 16 -1834 16 -1679 0 -1828 -1 -1834 -16z"/>
<path d="M4557 734 c-13 -13 -7 -42 9 -48 24 -9 367 -7 382 3 8 5 12 17 10 27
-3 18 -17 19 -199 22 -107 1 -198 -1 -202 -4z"/>
</g>
</svg>
