<?xml version="1.0" standalone="no"?>
<!DOCTYPE svg PUBLIC "-//W3C//DTD SVG 20010904//EN"
 "http://www.w3.org/TR/2001/REC-SVG-20010904/DTD/svg10.dtd">
<svg version="1.0" xmlns="http://www.w3.org/2000/svg"
 width="512.000000pt" height="512.000000pt" viewBox="0 0 512.000000 512.000000"
 preserveAspectRatio="xMidYMid meet">

<g transform="translate(0.000000,512.000000) scale(0.100000,-0.100000)"
fill="#000000" stroke="none">
<path d="M1225 4855 l-25 -24 0 -616 0 -615 -135 0 c-131 0 -137 -1 -160 -25
l-25 -24 0 -911 0 -911 25 -24 c23 -24 31 -25 135 -25 104 0 112 1 135 25 33
32 33 78 0 110 -20 21 -34 25 -80 25 l-55 0 0 800 0 800 342 0 342 0 82 -80
82 -80 1096 0 1096 0 0 -720 0 -720 -135 0 c-131 0 -137 -1 -160 -25 -33 -32
-33 -78 0 -110 24 -25 26 -25 215 -25 189 0 191 0 215 25 l25 24 0 831 0 831
-25 24 c-23 24 -29 25 -160 25 l-135 0 0 55 c0 67 -29 105 -80 105 -51 0 -80
-38 -80 -105 l0 -55 -902 0 -902 0 -82 80 -82 80 -216 0 -216 0 0 560 0 560
960 0 960 0 0 -215 c0 -288 -23 -265 265 -265 l215 0 0 -55 c0 -67 29 -105 80
-105 19 0 40 9 55 25 24 23 25 30 25 137 l0 113 -263 262 -262 263 -1073 0
-1073 0 -24 -25z m2320 -355 l100 -100 -103 0 -102 0 0 100 c0 55 1 100 3 100
1 0 47 -45 102 -100z"/>
<path d="M1705 4375 c-16 -15 -25 -36 -25 -55 0 -19 9 -40 25 -55 l24 -25 671
0 671 0 24 25 c33 32 33 78 0 110 l-24 25 -671 0 -671 0 -24 -25z"/>
<path d="M1705 3895 c-16 -15 -25 -36 -25 -55 0 -19 9 -40 25 -55 l24 -25 831
0 831 0 24 25 c16 15 25 36 25 55 0 19 -9 40 -25 55 l-24 25 -831 0 -831 0
-24 -25z"/>
<path d="M3785 3895 c-16 -15 -25 -36 -25 -55 0 -19 9 -40 25 -55 15 -16 36
-25 55 -25 19 0 40 9 55 25 16 15 25 36 25 55 0 19 -9 40 -25 55 -15 16 -36
25 -55 25 -19 0 -40 -9 -55 -25z"/>
<path d="M2185 2455 c-16 -15 -25 -36 -25 -55 0 -19 9 -40 25 -55 23 -24 29
-25 160 -25 l135 0 0 -80 0 -80 -320 0 -320 0 0 55 c0 46 -4 60 -25 80 -24 25
-26 25 -215 25 -189 0 -191 0 -215 -25 l-25 -24 0 -431 0 -431 25 -24 c24 -25
26 -25 215 -25 189 0 191 0 215 25 21 20 25 34 25 80 l0 55 536 0 c392 0 548
-3 578 -12 85 -25 166 -136 166 -227 0 -21 9 -41 25 -56 l24 -25 271 0 271 0
26 26 c25 25 26 29 20 110 -24 332 -226 620 -527 751 -64 27 -142 49 -247 69
-22 4 -23 9 -23 84 l0 80 135 0 c131 0 137 1 160 25 16 15 25 36 25 55 0 19
-9 40 -25 55 l-24 25 -511 0 -511 0 -24 -25z m615 -215 l0 -80 -80 0 -80 0 0
80 0 80 80 0 80 0 0 -80z m-1120 -400 l0 -320 -80 0 -80 0 0 320 0 320 80 0
80 0 0 -320z m1334 146 c189 -37 362 -153 470 -316 45 -68 92 -189 102 -258
l7 -52 -162 0 c-129 0 -161 3 -161 14 0 7 -16 45 -35 83 -43 86 -103 144 -193
186 l-67 32 -567 3 -568 3 0 159 0 160 549 0 c437 0 565 -3 625 -14z"/>
<path d="M3408 1034 c-37 -11 -199 -231 -251 -342 -27 -57 -32 -78 -31 -142 1
-122 55 -211 166 -271 58 -31 70 -34 148 -33 72 0 93 4 136 26 76 40 107 70
144 140 30 55 34 72 35 138 0 66 -4 84 -36 150 -37 76 -128 210 -197 287 -37
42 -75 58 -114 47z m91 -275 c27 -39 62 -101 77 -139 27 -69 27 -70 10 -115
-53 -136 -239 -136 -292 0 -17 45 -17 46 10 115 27 69 118 210 136 210 5 0 32
-32 59 -71z"/>
</g>
</svg>
